IKResults
version=1
nRows=6
nColumns=79
inDegrees=yes
endheader
time	/jointset/ground_pelvis/pelvis_tilt/value	/jointset/ground_pelvis/pelvis_tilt/speed	/jointset/ground_pelvis/pelvis_list/value	/jointset/ground_pelvis/pelvis_list/speed	/jointset/ground_pelvis/pelvis_rotation/value	/jointset/ground_pelvis/pelvis_rotation/speed	/jointset/ground_pelvis/pelvis_tx/value	/jointset/ground_pelvis/pelvis_tx/speed	/jointset/ground_pelvis/pelvis_ty/value	/jointset/ground_pelvis/pelvis_ty/speed	/jointset/ground_pelvis/pelvis_tz/value	/jointset/ground_pelvis/pelvis_tz/speed	/jointset/hip_r/hip_flexion_r/value	/jointset/hip_r/hip_flexion_r/speed	/jointset/hip_r/hip_adduction_r/value	/jointset/hip_r/hip_adduction_r/speed	/jointset/hip_r/hip_rotation_r/value	/jointset/hip_r/hip_rotation_r/speed	/jointset/walker_knee_r/knee_angle_r/value	/jointset/walker_knee_r/knee_angle_r/speed	/jointset/patellofemoral_r/knee_angle_r_beta/value	/jointset/patellofemoral_r/knee_angle_r_beta/speed	/jointset/ankle_r/ankle_angle_r/value	/jointset/ankle_r/ankle_angle_r/speed	/jointset/subtalar_r/subtalar_angle_r/value	/jointset/subtalar_r/subtalar_angle_r/speed	/jointset/mtp_r/mtp_angle_r/value	/jointset/mtp_r/mtp_angle_r/speed	/jointset/hip_l/hip_flexion_l/value	/jointset/hip_l/hip_flexion_l/speed	/jointset/hip_l/hip_adduction_l/value	/jointset/hip_l/hip_adduction_l/speed	/jointset/hip_l/hip_rotation_l/value	/jointset/hip_l/hip_rotation_l/speed	/jointset/walker_knee_l/knee_angle_l/value	/jointset/walker_knee_l/knee_angle_l/speed	/jointset/patellofemoral_l/knee_angle_l_beta/value	/jointset/patellofemoral_l/knee_angle_l_beta/speed	/jointset/ankle_l/ankle_angle_l/value	/jointset/ankle_l/ankle_angle_l/speed	/jointset/subtalar_l/subtalar_angle_l/value	/jointset/subtalar_l/subtalar_angle_l/speed	/jointset/mtp_l/mtp_angle_l/value	/jointset/mtp_l/mtp_angle_l/speed	/jointset/back/lumbar_extension/value	/jointset/back/lumbar_extension/speed	/jointset/back/lumbar_bending/value	/jointset/back/lumbar_bending/speed	/jointset/back/lumbar_rotation/value	/jointset/back/lumbar_rotation/speed	/jointset/acromial_r/arm_flex_r/value	/jointset/acromial_r/arm_flex_r/speed	/jointset/acromial_r/arm_add_r/value	/jointset/acromial_r/arm_add_r/speed	/jointset/acromial_r/arm_rot_r/value	/jointset/acromial_r/arm_rot_r/speed	/jointset/elbow_r/elbow_flex_r/value	/jointset/elbow_r/elbow_flex_r/speed	/jointset/radioulnar_r/pro_sup_r/value	/jointset/radioulnar_r/pro_sup_r/speed	/jointset/radius_hand_r/wrist_flex_r/value	/jointset/radius_hand_r/wrist_flex_r/speed	/jointset/radius_hand_r/wrist_dev_r/value	/jointset/radius_hand_r/wrist_dev_r/speed	/jointset/acromial_l/arm_flex_l/value	/jointset/acromial_l/arm_flex_l/speed	/jointset/acromial_l/arm_add_l/value	/jointset/acromial_l/arm_add_l/speed	/jointset/acromial_l/arm_rot_l/value	/jointset/acromial_l/arm_rot_l/speed	/jointset/elbow_l/elbow_flex_l/value	/jointset/elbow_l/elbow_flex_l/speed	/jointset/radioulnar_l/pro_sup_l/value	/jointset/radioulnar_l/pro_sup_l/speed	/jointset/radius_hand_l/wrist_flex_l/value	/jointset/radius_hand_l/wrist_flex_l/speed	/jointset/radius_hand_l/wrist_dev_l/value	/jointset/radius_hand_l/wrist_dev_l/speed
     12.15000000	  20519.25163798	      0.00000000	-145437.91375232	      0.00000000	 -42861.30901789	      0.00000000	      0.00000000	      0.00000000	      0.93000000	      0.00000000	      0.00000000	      0.00000000	     -3.06558058	      0.00000000	      1.63661500	      0.00000000	     -0.83895561	      0.00000000	     11.12825523	      0.00000000	      0.19422469	      0.00000000	      7.73309082	      0.00000000	      0.00000000	      0.00000000	      0.00000000	      0.00000000	     26.06300750	      0.00000000	     -1.77829232	      0.00000000	      0.21826151	      0.00000000	      1.99823451	      0.00000000	      0.03487577	      0.00000000	      3.43069516	      0.00000000	      0.00000000	      0.00000000	      0.00000000	      0.00000000	      0.00000000	      0.00000000	      0.00000000	      0.00000000	      0.00000000	      0.00000000	      0.00000000	      0.00000000	      0.00000000	      0.00000000	      0.00000000	      0.00000000	      0.00000000	      0.00000000	      0.00000000	      0.00000000	      0.00000000	      0.00000000	      0.00000000	      0.00000000	      0.00000000	      0.00000000	      0.00000000	      0.00000000	      0.00000000	      0.00000000	      0.00000000	      0.00000000	      0.00000000	      0.00000000	      0.00000000	      0.00000000	      0.00000000	      0.00000000
     12.16000000	  20519.20711613	      0.00000000	-145438.04834374	      0.00000000	 -42861.74603980	      0.00000000	      0.00000000	      0.00000000	      0.93000000	      0.00000000	      0.00000000	      0.00000000	     -3.46822831	      0.00000000	      1.59785998	      0.00000000	     -0.59956837	      0.00000000	     11.44296325	      0.00000000	      0.19971738	      0.00000000	      7.94496578	      0.00000000	      0.00000000	      0.00000000	      0.00000000	      0.00000000	     25.97294984	      0.00000000	     -2.06639340	      0.00000000	      0.69052780	      0.00000000	      0.28509460	      0.00000000	      0.00497584	      0.00000000	      4.46679223	      0.00000000	      0.00000000	      0.00000000	      0.00000000	      0.00000000	      0.00000000	      0.00000000	      0.00000000	      0.00000000	      0.00000000	      0.00000000	      0.00000000	      0.00000000	      0.00000000	      0.00000000	      0.00000000	      0.00000000	      0.00000000	      0.00000000	      0.00000000	      0.00000000	      0.00000000	      0.00000000	      0.00000000	      0.00000000	      0.00000000	      0.00000000	      0.00000000	      0.00000000	      0.00000000	      0.00000000	      0.00000000	      0.00000000	      0.00000000	      0.00000000	      0.00000000	      0.00000000	      0.00000000	      0.00000000
     12.17000000	  20519.16865910	      0.00000000	-145438.18347233	      0.00000000	 -42862.19915063	      0.00000000	      0.00000000	      0.00000000	      0.93000000	      0.00000000	      0.00000000	      0.00000000	     -3.82784460	      0.00000000	      1.52360670	      0.00000000	     -0.35041489	      0.00000000	     11.86439951	      0.00000000	      0.20707284	      0.00000000	      8.17095158	      0.00000000	      0.00000000	      0.00000000	      0.00000000	      0.00000000	     26.44716344	      0.00000000	     -2.31491019	      0.00000000	      1.11226157	      0.00000000	      0.12225589	      0.00000000	      0.00213377	      0.00000000	      6.35226684	      0.00000000	      0.00000000	      0.00000000	      0.00000000	      0.00000000	      0.00000000	      0.00000000	      0.00000000	      0.00000000	      0.00000000	      0.00000000	      0.00000000	      0.00000000	      0.00000000	      0.00000000	      0.00000000	      0.00000000	      0.00000000	      0.00000000	      0.00000000	      0.00000000	      0.00000000	      0.00000000	      0.00000000	      0.00000000	      0.00000000	      0.00000000	      0.00000000	      0.00000000	      0.00000000	      0.00000000	      0.00000000	      0.00000000	      0.00000000	      0.00000000	      0.00000000	      0.00000000	      0.00000000	      0.00000000
     12.18000000	  20519.11355895	      0.00000000	-145438.28234539	      0.00000000	 -42862.65127235	      0.00000000	      0.00000000	      0.00000000	      0.93000000	      0.00000000	      0.00000000	      0.00000000	     -4.13256321	      0.00000000	      1.41628208	      0.00000000	     -0.13069748	      0.00000000	     12.35070785	      0.00000000	      0.21556052	      0.00000000	      8.39008280	      0.00000000	      0.00000000	      0.00000000	      0.00000000	      0.00000000	     26.78754548	      0.00000000	     -2.34364757	      0.00000000	      1.51234825	      0.00000000	      0.09406958	      0.00000000	      0.00164182	      0.00000000	      8.13787356	      0.00000000	      0.00000000	      0.00000000	      0.00000000	      0.00000000	      0.00000000	      0.00000000	      0.00000000	      0.00000000	      0.00000000	      0.00000000	      0.00000000	      0.00000000	      0.00000000	      0.00000000	      0.00000000	      0.00000000	      0.00000000	      0.00000000	      0.00000000	      0.00000000	      0.00000000	      0.00000000	      0.00000000	      0.00000000	      0.00000000	      0.00000000	      0.00000000	      0.00000000	      0.00000000	      0.00000000	      0.00000000	      0.00000000	      0.00000000	      0.00000000	      0.00000000	      0.00000000	      0.00000000	      0.00000000
     12.19000000	  20519.08046744	      0.00000000	-145438.35879241	      0.00000000	 -42863.09131249	      0.00000000	      0.00000000	      0.00000000	      0.93000000	      0.00000000	      0.00000000	      0.00000000	     -4.40570900	      0.00000000	      1.26132892	      0.00000000	      0.05867237	      0.00000000	     12.95425473	      0.00000000	      0.22609440	      0.00000000	      8.64145146	      0.00000000	     -0.00000000	      0.00000000	      0.00000000	      0.00000000	     26.85767016	      0.00000000	     -2.12610040	      0.00000000	      1.68981804	      0.00000000	      0.08805360	      0.00000000	      0.00153683	      0.00000000	      9.45519497	      0.00000000	     -0.00000000	      0.00000000	     -0.00000000	      0.00000000	      0.00000000	      0.00000000	      0.00000000	      0.00000000	     -0.00000000	      0.00000000	     -0.00000000	      0.00000000	     -0.00000000	      0.00000000	      0.00000000	      0.00000000	      0.00000000	      0.00000000	      0.00000000	      0.00000000	     -0.00000000	      0.00000000	      0.00000000	      0.00000000	      0.00000000	      0.00000000	      0.00000000	      0.00000000	     -0.00000000	      0.00000000	      0.00000000	      0.00000000	      0.00000000	      0.00000000	      0.00000000	      0.00000000	      0.00000000	      0.00000000
     12.20000000	  20519.02990895	      0.00000000	-145438.39517453	      0.00000000	 -42863.51561855	      0.00000000	      0.00000000	      0.00000000	      0.93000000	      0.00000000	      0.00000000	      0.00000000	     -4.55783873	      0.00000000	      1.06491704	      0.00000000	      0.23241835	      0.00000000	     13.73887510	      0.00000000	      0.23978861	      0.00000000	      8.97937725	      0.00000000	     -0.00000000	      0.00000000	      0.00000000	      0.00000000	     26.87477293	      0.00000000	     -1.76513078	      0.00000000	      1.55861578	      0.00000000	      0.08814497	      0.00000000	      0.00153842	      0.00000000	      9.87053344	      0.00000000	      0.00000000	      0.00000000	      0.00000000	      0.00000000	     -0.00000000	      0.00000000	      0.00000000	      0.00000000	      0.00000000	      0.00000000	     -0.00000000	      0.00000000	      0.00000000	      0.00000000	     -0.00000000	      0.00000000	      0.00000000	      0.00000000	      0.00000000	      0.00000000	      0.00000000	      0.00000000	      0.00000000	      0.00000000	      0.00000000	      0.00000000	     -0.00000000	      0.00000000	     -0.00000000	      0.00000000	      0.00000000	      0.00000000	      0.00000000	      0.00000000	      0.00000000	      0.00000000	     -0.00000000	      0.00000000
